<svg xmlns="http://www.w3.org/2000/svg" xmlns:xlink="http://www.w3.org/1999/xlink" width="24" height="24" viewBox="0 0 24 24">
  <defs>
    <style>
      .cls-1 {
        fill: #fff;
        stroke: #707070;
      }

      .cls-2 {
        clip-path: url(#clip-path);
      }

      .cls-3 {
        fill: #9393a3;
      }
    </style>
    <clipPath id="clip-path">
      <rect id="Rectangle_743" data-name="Rectangle 743" class="cls-1" width="24" height="24" transform="translate(393 2407)"/>
    </clipPath>
  </defs>
  <g id="cutomer" class="cls-2" transform="translate(-393 -2407)">
    <path id="path" class="cls-3" d="M684.3,1011.2a2.051,2.051,0,0,1,2,2v14a2.051,2.051,0,0,1-2,2h-14a2.051,2.051,0,0,1-2-2v-14a2.051,2.051,0,0,1,2-2h4.2a3.27,3.27,0,0,1,1.1-1.5,2.708,2.708,0,0,1,3.4,0,3.269,3.269,0,0,1,1.1,1.5h4.2Zm-1,16v-1.4c0-.9-.7-1.6-2.1-2.2a9.959,9.959,0,0,0-3.9-.9,9.587,9.587,0,0,0-3.9.9c-1.3.6-2.1,1.3-2.1,2.2v1.4Zm-3.9-11.1a2.9,2.9,0,1,0,.9,2.1A2.878,2.878,0,0,0,679.4,1016.1Zm-1.4-4.6a.967.967,0,1,0,.3.7A.908.908,0,0,0,678,1011.5Z" transform="translate(-272.3 1399.9)"/>
  </g>
</svg>
