<svg xmlns="http://www.w3.org/2000/svg" width="53.492" height="55.816" viewBox="0 0 53.492 55.816">
  <defs>
    <style>
      .cls-1 {
        fill: #0a253d;
      }
    </style>
  </defs>
  <g id="noun_guarantee_357448" transform="translate(-0.996)">
    <g id="Group_502" data-name="Group 502" transform="translate(0.996)">
      <path id="Path_368" data-name="Path 368" class="cls-1" d="M44.183,0H10.66V55.816H52.521V8.34Zm.2,3.489,4.65,4.651h-4.65Zm-31.4,50V2.326h29.07v8.14H50.2V53.489Z" transform="translate(-10.66)"/>
      <path id="Path_369" data-name="Path 369" class="cls-1" d="M253.472,373.344h-6.977a1.162,1.162,0,1,0,0,2.323h6.977a1.162,1.162,0,1,0,0-2.323Z" transform="translate(-219.749 -332.644)"/>
      <path id="Path_370" data-name="Path 370" class="cls-1" d="M101.405,192H75.823a1.163,1.163,0,1,0,0,2.326h25.582a1.163,1.163,0,0,0,0-2.326Z" transform="translate(-67.683 -171.069)"/>
      <path id="Path_371" data-name="Path 371" class="cls-1" d="M101.405,256H75.823a1.163,1.163,0,1,0,0,2.327h25.582a1.163,1.163,0,0,0,0-2.327Z" transform="translate(-67.683 -228.092)"/>
      <path id="Path_372" data-name="Path 372" class="cls-1" d="M75.823,130.326H88.614a1.163,1.163,0,1,0,0-2.326H75.823a1.163,1.163,0,1,0,0,2.326Z" transform="translate(-67.683 -114.046)"/>
      <path id="Path_373" data-name="Path 373" class="cls-1" d="M80.474,320a5.814,5.814,0,0,0-3.488,10.466v5.815l3.488-1.165,3.489,1.165v-5.815A5.814,5.814,0,0,0,80.474,320Zm1.163,13.053-.428-.141-.735-.245-.736.245-.427.141v-1.542a5.894,5.894,0,0,0,2.325,0ZM80.474,329.3a3.488,3.488,0,1,1,3.489-3.489A3.494,3.494,0,0,1,80.474,329.3Z" transform="translate(-67.683 -285.115)"/>
      <path id="Path_374" data-name="Path 374" class="cls-1" d="M425.3,89.98a4.652,4.652,0,1,0-9.3,0v31.4h1.443L416,126.415l4.65,3.1,4.654-3.1-1.444-5.039H425.3Zm-6.977,0a2.325,2.325,0,1,1,4.65,0v29.07h-4.65Zm4.272,35.444-1.949,1.3-1.947-1.3,1.158-4.047h1.579Z" transform="translate(-371.808 -76.026)"/>
      <path id="Path_375" data-name="Path 375" class="cls-1" d="M118.495,362.656a1.163,1.163,0,1,0,1.163,1.165A1.163,1.163,0,0,0,118.495,362.656Z" transform="translate(-105.703 -323.121)"/>
    </g>
  </g>
</svg>
