<svg id="noun_rent_1839731" xmlns="http://www.w3.org/2000/svg" width="60" height="56.587" viewBox="0 0 60 56.587">
  <defs>
    <style>
      .cls-1 {
        fill: #0a253d;
      }
    </style>
  </defs>
  <g id="Group_389" data-name="Group 389">
    <path id="Path_361" data-name="Path 361" class="cls-1" d="M8.069,80.144h10.98a3.069,3.069,0,0,0,3.063-3.017l10.446,3.459a15.229,15.229,0,0,0,11.4-.719L60.393,71.83a4.3,4.3,0,0,0-3.77-7.719l-9.331,4.553a4.428,4.428,0,0,0-4.28-3.325H36.457l-2.309-1.232a15.354,15.354,0,0,0-7.2-1.8H22.118v-.023a3.072,3.072,0,0,0-3.069-3.069H8.069A3.073,3.073,0,0,0,5,62.284V77.076A3.072,3.072,0,0,0,8.069,80.144ZM26.943,64.974a12.683,12.683,0,0,1,5.949,1.487L35.5,67.851c.016.009.033.011.05.019a1.289,1.289,0,0,0,.181.069c.036.011.071.025.108.033a1.291,1.291,0,0,0,.192.023c.032,0,.063.011.1.011l.015,0h6.871a1.76,1.76,0,0,1,0,3.519H33.393a1.333,1.333,0,0,0,0,2.667H43.01a4.423,4.423,0,0,0,3.921-2.384l10.86-5.3A1.628,1.628,0,0,1,60.045,68.5a1.614,1.614,0,0,1-.825.934L42.8,77.467a12.567,12.567,0,0,1-9.4.589L22.118,74.321V64.974ZM7.667,62.284a.4.4,0,0,1,.4-.4h10.98a.4.4,0,0,1,.4.4V77.076a.4.4,0,0,1-.4.4H8.069a.4.4,0,0,1-.4-.4Z" transform="translate(-5 -24.781)"/>
    <path id="Path_362" data-name="Path 362" class="cls-1" d="M40.734,31.243a4.035,4.035,0,1,0,4.037,4.032A4.039,4.039,0,0,0,40.734,31.243Zm0,5.4A1.368,1.368,0,1,1,42.1,35.275,1.373,1.373,0,0,1,40.734,36.646Z" transform="translate(-15.566 -15.457)"/>
    <path id="Path_363" data-name="Path 363" class="cls-1" d="M77.268,31.243a4.035,4.035,0,1,0,4.037,4.032A4.039,4.039,0,0,0,77.268,31.243Zm0,5.4a1.368,1.368,0,1,1,1.371-1.371A1.373,1.373,0,0,1,77.268,36.646Z" transform="translate(-27.744 -15.457)"/>
    <path id="Path_364" data-name="Path 364" class="cls-1" d="M62.954,38.348H51.8a1.333,1.333,0,0,0,0,2.667H62.954a1.333,1.333,0,1,0,0-2.667Z" transform="translate(-20.155 -17.825)"/>
    <path id="Path_365" data-name="Path 365" class="cls-1" d="M62.954,32.25H51.8a1.333,1.333,0,0,0,0,2.667H62.954a1.333,1.333,0,1,0,0-2.667Z" transform="translate(-20.155 -15.793)"/>
    <path id="Path_366" data-name="Path 366" class="cls-1" d="M68.891,15.673H65.628L64.235,12.6a8.6,8.6,0,0,0-7.823-5.039H42.932A8.607,8.607,0,0,0,35.109,12.6l-1.383,3.048H30.435a3.462,3.462,0,0,0-3.459,3.459,3.463,3.463,0,0,0,3.459,3.459h.225a11.259,11.259,0,0,0-.565,3.5v12.57a3.327,3.327,0,0,0,3.323,3.323H35.63a3.33,3.33,0,0,0,3.329-3.323V35.773H60.385v2.869a3.33,3.33,0,0,0,3.329,3.323h2.211a3.327,3.327,0,0,0,3.323-3.323V26.071a11.27,11.27,0,0,0-.573-3.525h.215a3.436,3.436,0,0,0,0-6.873ZM37.537,13.7a5.934,5.934,0,0,1,5.395-3.474H56.411A5.932,5.932,0,0,1,61.805,13.7l2.979,6.567q-4.62-.261-9.265-.364l3.039-3.039a1.333,1.333,0,0,0-1.885-1.885l-4.867,4.868q-3.583-.03-7.165.031l3.013-3.013a1.333,1.333,0,0,0-1.885-1.885l-4.984,4.985-.007.009c-2.075.067-4.145.164-6.213.279Zm-7.895,5.405a.783.783,0,0,1,.239-.566.77.77,0,0,1,.554-.227h2.081L31.8,19.9H30.435A.793.793,0,0,1,29.642,19.109Zm6.649,19.531a.66.66,0,0,1-.662.657H33.418a.658.658,0,0,1-.657-.657V35.772h3.53v2.869Zm13.355-5.535H32.761V26.071a8.573,8.573,0,0,1,.59-3.078A268.061,268.061,0,0,1,66,23.009a8.576,8.576,0,0,1,.584,3.062v7.035H49.647Zm16.936,5.535a.658.658,0,0,1-.657.657H63.715a.66.66,0,0,1-.662-.657V35.772h3.531v2.869Zm2.854-18.989a.766.766,0,0,1-.545.228H67.537l-.7-1.54h2.053a.768.768,0,0,1,.767.767A.78.78,0,0,1,69.437,19.651Z" transform="translate(-12.325 -7.564)"/>
  </g>
</svg>
