<svg xmlns="http://www.w3.org/2000/svg" width="48.359" height="63.24" viewBox="0 0 48.359 63.24">
  <g id="noun_sim_cards_663821" data-name="noun_sim cards_663821" transform="translate(-18.405 -9.083)">
    <path id="Path_394" data-name="Path 394" d="M55.049,10.655a4.881,4.881,0,0,0-3.383-1.572h-24.1A2.672,2.672,0,0,0,24.9,11.752v4.455H21.074a2.672,2.672,0,0,0-2.669,2.669V69.654a2.672,2.672,0,0,0,2.669,2.669H57.6a2.672,2.672,0,0,0,2.669-2.669V65.2h3.822a2.672,2.672,0,0,0,2.669-2.669V26.476a5.982,5.982,0,0,0-1.254-3.429Zm2.936,53.4v5.6a.386.386,0,0,1-.381.381H21.075a.386.386,0,0,1-.381-.381V18.877a.386.386,0,0,1,.381-.381h24.1a2.648,2.648,0,0,1,1.635.76l10.46,12.393a3.761,3.761,0,0,1,.714,1.953v30.45Zm6.491-1.522a.386.386,0,0,1-.381.381H60.273V33.6a5.982,5.982,0,0,0-1.254-3.429L48.559,17.778a4.885,4.885,0,0,0-3.383-1.571H27.184V11.752a.386.386,0,0,1,.381-.381h24.1a2.64,2.64,0,0,1,1.635.76l10.46,12.392a3.761,3.761,0,0,1,.714,1.953V62.529Z"/>
    <path id="Path_395" data-name="Path 395" d="M51.607,46.655h-20.5a4.2,4.2,0,0,0-4.195,4.195v20.5a4.2,4.2,0,0,0,4.195,4.195h20.5A4.2,4.2,0,0,0,55.8,71.346V50.85A4.2,4.2,0,0,0,51.607,46.655Zm-9.1,2.288h4.361v8.319H44.41A1.909,1.909,0,0,1,42.5,55.356ZM35.861,73.252h-4.75A1.909,1.909,0,0,1,29.2,71.345V66.753h6.657Zm8.787,0h-6.5v-6.5h6.5Zm8.866-1.907a1.909,1.909,0,0,1-1.907,1.907H46.936v-6.5h6.577Zm0-6.879H29.2V50.85a1.909,1.909,0,0,1,1.907-1.907h9.1v6.413a4.2,4.2,0,0,0,4.195,4.195h9.1Zm0-7.2H49.152V48.943h2.454a1.909,1.909,0,0,1,1.907,1.907Z" transform="translate(-2.02 -8.916)"/>
  </g>
</svg>
