<svg xmlns="http://www.w3.org/2000/svg" width="52.688" height="67.288" viewBox="0 0 52.688 67.288">
  <defs>
    <style>
      .cls-1 {
        fill: none;
      }

      .cls-2, .cls-4 {
        fill: #0a253d;
      }

      .cls-2 {
        stroke: #0a253d;
        stroke-width: 0.5px;
      }

      .cls-3, .cls-4 {
        stroke: none;
      }
    </style>
  </defs>
  <g id="noun_Passport_185599" transform="translate(-13.381 -3)">
    <g id="Path_376" data-name="Path 376" class="cls-1" transform="translate(-4.216)">
      <path class="cls-3" d="M68.187,16.943a2.885,2.885,0,0,0-2.039-3.532L35.125,5.1a2.88,2.88,0,0,0-3.532,2.039l-2.008,7.493H54.6A4.812,4.812,0,0,1,59.4,19.438V49.721Z"/>
      <path class="cls-4" d="M 34.37665939331055 4.999996185302734 C 33.1031494140625 4.999996185302734 31.93794250488281 5.850177764892578 31.59265899658203 7.138458251953125 L 29.58499908447266 14.6318473815918 L 54.59671783447266 14.6318473815918 C 57.24710845947266 14.6318473815918 59.40314865112305 16.78787612915039 59.40314865112305 19.43827819824219 L 59.40314865112305 49.72053909301758 L 68.18692016601562 16.94328689575195 C 68.5989990234375 15.40466690063477 67.68553161621094 13.82315826416016 66.14761352539062 13.41106796264648 L 35.12487030029297 5.099147796630859 C 34.87453079223633 5.031646728515625 34.62348937988281 4.999996185302734 34.37665939331055 4.999996185302734 M 34.37665939331055 2.999996185302734 C 34.80490875244141 2.999996185302734 35.23181915283203 3.056556701660156 35.64553833007812 3.168106079101562 L 66.66520690917969 11.47920608520508 C 69.2662353515625 12.1761589050293 70.81550598144531 14.85943603515625 70.11882781982422 17.46069717407227 L 61.33498001098633 50.23823928833008 L 57.40314865112305 49.72053909301758 L 57.40314865112305 19.43827819824219 C 57.40314865112305 17.89080810546875 56.14418792724609 16.6318473815918 54.59671783447266 16.6318473815918 L 29.58499908447266 16.6318473815918 L 26.97860717773438 16.6318473815918 L 27.65313720703125 14.1142578125 L 29.66079711914062 6.620868682861328 C 30.23220062255859 4.488887786865234 32.17141723632812 2.999996185302734 34.37665939331055 2.999996185302734 Z"/>
    </g>
    <g id="Path_386" data-name="Path 386" class="cls-1" transform="translate(0 -4.877)">
      <path class="cls-3" d="M53.265,24.315a2.884,2.884,0,0,0-2.885-2.884H18.265a2.884,2.884,0,0,0-2.885,2.884V70.281a2.885,2.885,0,0,0,2.885,2.885H50.381a2.885,2.885,0,0,0,2.885-2.885ZM47.024,61.771a1.442,1.442,0,0,1-1.442,1.442H24.049a1.442,1.442,0,1,1,0-2.885H45.581A1.442,1.442,0,0,1,47.024,61.771Z"/>
      <path class="cls-4" d="M 18.26456451416016 21.43099975585938 C 16.67179489135742 21.43099975585938 15.3800048828125 22.72209167480469 15.3800048828125 24.31485748291016 L 15.3800048828125 70.28076934814453 C 15.3800048828125 71.87353515625 16.67108535766602 73.16533660888672 18.26456451416016 73.16533660888672 L 50.38079452514648 73.16533660888672 C 51.97355651855469 73.16533660888672 53.26534271240234 71.87353515625 53.26534271240234 70.28076934814453 L 53.26534271240234 24.31485748291016 C 53.26534271240234 22.72209167480469 51.97355651855469 21.43099975585938 50.38079452514648 21.43099975585938 L 18.26456451416016 21.43099975585938 M 45.58139419555664 63.21282958984375 L 24.04915237426758 63.21282958984375 C 23.25241470336914 63.21282958984375 22.60687255859375 62.56797790527344 22.60687255859375 61.77054977416992 C 22.60687255859375 60.97451782226562 23.25171279907227 60.32826995849609 24.04915237426758 60.32826995849609 L 45.58139419555664 60.32826995849609 C 46.37812423706055 60.32826995849609 47.02367401123047 60.97451782226562 47.02367401123047 61.77054977416992 C 47.02367401123047 62.56797790527344 46.37813568115234 63.21282958984375 45.58139419555664 63.21282958984375 M 18.26456451416016 19.43099975585938 L 50.38079452514648 19.43099975585938 C 53.07414245605469 19.43099975585938 55.26534271240234 21.62188720703125 55.26534271240234 24.31485748291016 L 55.26534271240234 70.28076934814453 C 55.26534271240234 72.97412872314453 53.07414245605469 75.16533660888672 50.38079452514648 75.16533660888672 L 18.26456451416016 75.16533660888672 C 15.57120513916016 75.16533660888672 13.3800048828125 72.97412872314453 13.3800048828125 70.28076934814453 L 13.3800048828125 24.31485748291016 C 13.3800048828125 21.62188720703125 15.57120513916016 19.43099975585938 18.26456451416016 19.43099975585938 Z"/>
    </g>
    <g id="Group_505" data-name="Group 505" transform="translate(8.007 5.013)">
      <path id="Path_396" data-name="Path 396" class="cls-2" d="M26.993,28.986a9.993,9.993,0,1,1,9.993-9.993A10,10,0,0,1,26.993,28.986Zm0-18.654a8.661,8.661,0,1,0,8.661,8.661A8.671,8.671,0,0,0,26.993,10.332Z" transform="translate(-0.273 11.988)"/>
      <path id="Path_397" data-name="Path 397" class="cls-2" d="M28.006,18.614a16.986,16.986,0,0,1-7.971-2.32l.62-1.18c5.5,2.889,9.207,2.889,14.7,0l.62,1.18A16.99,16.99,0,0,1,28.006,18.614Z" transform="translate(-1.286 9.947)"/>
      <path id="Path_398" data-name="Path 398" class="cls-2" d="M35.358,31.131c-5.5-2.889-9.206-2.889-14.7,0l-.62-1.18c5.885-3.094,10.057-3.094,15.943,0Z" transform="translate(-1.286 5.769)"/>
      <path id="Path_399" data-name="Path 399" class="cls-2" d="M30,28.949c-2.6,0-4-5.149-4-9.993s1.4-9.993,4-9.993,4,5.149,4,9.993S32.593,28.949,30,28.949ZM30,10.3c-1.087,0-2.665,3.374-2.665,8.661S28.911,27.617,30,27.617s2.665-3.374,2.665-8.661S31.084,10.3,30,10.3Z" transform="translate(-3.278 12)"/>
    </g>
  </g>
</svg>
