<svg id="noun_rent_1839701" xmlns="http://www.w3.org/2000/svg" width="54.568" height="49.068" viewBox="0 0 54.568 49.068">
  <defs>
    <style>
      .cls-1 {
        fill: #0a253d;
      }
    </style>
  </defs>
  <g id="Group_382" data-name="Group 382">
    <path id="Path_357" data-name="Path 357" class="cls-1" d="M7.854,75.771H18.238a2.856,2.856,0,0,0,2.853-2.854V72.9l9.938,3.291a14.354,14.354,0,0,0,10.746-.678l15.54-7.6A4.014,4.014,0,0,0,53.792,60.7l-8.878,4.332A4.139,4.139,0,0,0,40.9,61.867H34.687L32.493,60.7A14.481,14.481,0,0,0,25.7,59H21.091v-.07a2.857,2.857,0,0,0-2.853-2.854H7.854A2.857,2.857,0,0,0,5,58.929V72.918A2.857,2.857,0,0,0,7.854,75.771ZM25.7,61.424a12.051,12.051,0,0,1,5.648,1.412l2.465,1.314c.015.008.03.01.045.017a1.2,1.2,0,0,0,.167.064c.032.01.064.022.1.03a1.191,1.191,0,0,0,.176.021c.028,0,.058.01.086.01l.013,0h6.5a1.712,1.712,0,0,1,0,3.424H31.8a1.213,1.213,0,1,0,0,2.425H40.9A4.135,4.135,0,0,0,44.57,67.9L54.856,62.88a1.588,1.588,0,0,1,1.394,2.854l-15.53,7.6a11.93,11.93,0,0,1-8.929.56l-10.7-3.543V61.424ZM7.425,58.929a.429.429,0,0,1,.429-.429H18.238a.428.428,0,0,1,.428.429V72.918a.428.428,0,0,1-.428.429H7.854a.429.429,0,0,1-.429-.429Z" transform="translate(-5 -27.86)"/>
    <path id="Path_358" data-name="Path 358" class="cls-1" d="M29.66,27.707a1.209,1.209,0,0,0,.792-.295l1.63-1.407V38.628a1.213,1.213,0,0,0,2.425,0V23.913L47.9,12.352l13.4,11.564V40.448a1.213,1.213,0,1,0,2.425,0V26.009l1.628,1.4a1.213,1.213,0,0,0,1.584-1.836l-4.737-4.087V12.645a1.213,1.213,0,0,0-1.213-1.213H56.462a1.213,1.213,0,0,0-1.213,1.213v2.842L48.7,9.833a1.213,1.213,0,0,0-1.584,0L28.867,25.577a1.212,1.212,0,0,0,.792,2.13Zm28.015-13.85h2.107V19.4l-2.107-1.818Z" transform="translate(-14.231 -9.538)"/>
    <path id="Path_359" data-name="Path 359" class="cls-1" d="M56.759,33.421v.865a3.585,3.585,0,0,0-2.745,3.338,3.758,3.758,0,0,0,3.958,3.507c.831,0,1.533.5,1.533,1.082S58.8,43.3,57.972,43.3a1.559,1.559,0,0,1-1.483-.817,1.212,1.212,0,1,0-2.266.863,3.758,3.758,0,0,0,2.537,2.211v.864a1.213,1.213,0,0,0,2.425,0v-.865a3.585,3.585,0,0,0,2.745-3.337,3.758,3.758,0,0,0-3.958-3.507c-.831,0-1.533-.5-1.533-1.082s.7-1.082,1.533-1.082a1.493,1.493,0,0,1,1.509.9,1.213,1.213,0,0,0,2.349-.6,3.676,3.676,0,0,0-2.646-2.548v-.868a1.213,1.213,0,0,0-2.426,0Z" transform="translate(-24.297 -18.464)"/>
    <path id="Path_360" data-name="Path 360" class="cls-1" d="M41.117,37.277A11.777,11.777,0,1,0,52.894,25.5,11.79,11.79,0,0,0,41.117,37.277Zm21.129,0a9.352,9.352,0,1,1-9.352-9.352A9.362,9.362,0,0,1,62.246,37.277Z" transform="translate(-19.22 -15.823)"/>
  </g>
</svg>
